<svg xmlns="http://www.w3.org/2000/svg" viewBox="0 0 500.87 406.26"><defs><style>.cls-1{fill-opacity:0;}.cls-1,.cls-3,.cls-6,.cls-7,.cls-8{stroke:#fff;}.cls-1,.cls-4{stroke-width:3px;}.cls-2,.cls-4,.cls-7,.cls-8{fill:#fff;}.cls-3,.cls-6{fill:none;}.cls-3{stroke-width:1.5px;}.cls-4{stroke:#a87e62;}.cls-5{fill:#a87e62;}.cls-6,.cls-8{stroke-width:2px;}.cls-7{stroke-width:0.05px;}</style></defs><g id="Layer_2" data-name="Layer 2"><g id="Layer_1-2" data-name="Layer 1"><path class="cls-1" d="M119.45,203.13a40,40,0,1,1-40-40A40,40,0,0,1,119.45,203.13Z"/><g id="a"><path id="m" class="cls-2" d="M83.86,194.54c-.34-3.26-8.35-3.67-8.42.14,1,5.09,10.73.95,11.07,8.08.21,5.29-8.21,5.9-11.88,3.73a4.86,4.86,0,0,1-2.24-3.12l2.24-.48c.34,3.8,9.57,4.28,9.57-.07,0-5.29-10.52-.95-11-8-.34-5.57,9.85-5.7,12.16-2.31a6.74,6.74,0,0,1,.75,1.7"/></g><path class="cls-3" d="M1,162.68a.75.75,0,0,1,1.06,0l38.2,38.2a.75.75,0,1,1-1.06,1.06L1,163.74A.75.75,0,0,1,1,162.68ZM1.36,244a.75.75,0,0,1,0-1.06l37.8-37.8a.75.75,0,0,1,1.06,0h0a.75.75,0,0,1,0,1.06L2.43,244a.75.75,0,0,1-1.06,0Z"/><path class="cls-1" d="M499.37,201.1a40,40,0,1,1-40-40A40,40,0,0,1,499.37,201.1Z"/><g id="b"><path id="n" class="cls-2" d="M456.22,190.39v6.25h9.37v1.9h-9.37v6.79H454V188.49h11.88v1.9h-9.64"/></g><path class="cls-4" d="M317.83,203.13a40,40,0,1,1-40-40,40,40,0,0,1,40,40Z"/><g id="l"><path id="x" class="cls-5" d="M270.72,190.78c6.89.08,15.26-1.18,15.12,5.85-.08,5.56-5.12,6.52-11.26,6.08v6.44h-3.86Zm3.86,9c3.48,0,7.4.52,7.4-3s-4-2.89-7.4-2.89v5.92"/></g><path class="cls-6" d="M117.36,184.26H222.42"/><path class="cls-7" d="M117.39,185.26h-.47l-1.12-2h1.58Z"/><path class="cls-8" d="M237.69,184.26l-14.27,4.63v-9.28Z"/><g id="d"><path id="p" class="cls-2" d="M171.67,161.48c3,0,3.89,2.45,3.89,5.45s-1.05,5.44-4.05,5.55c-1.73.06-2.5-.94-3.28-1.89.16,1.84.11,3.84.11,5.84h-2.78l-.05-14.73h2.66a14.28,14.28,0,0,0,.17,1.73A3.21,3.21,0,0,1,171.67,161.48Zm-1.16,9.11c1.83,0,2.16-1.72,2.22-3.66,0-2.11-.5-3.56-2.22-3.56-3.12,0-3.06,7.22,0,7.22"/></g><path class="cls-6" d="M314.48,182h89.6"/><path class="cls-7" d="M314.51,183H314l-1.1-2h1.58Z"/><path class="cls-8" d="M419.33,182l-14.26,4.62v-9.27Z"/><g id="e"><path id="q" class="cls-2" d="M371.44,157.43c-1.5-.39-2.39.28-2.11,2h2.11v1.84h-2.11V170h-2.72v-8.72h-1.56v-1.84h1.56c-.5-3.28,1.78-4.5,4.83-3.78v1.78"/></g><path class="cls-1" d="M317.83,364.76a40,40,0,1,1-40-40,40,40,0,0,1,40,40Z"/><g id="f"><path id="r" class="cls-2" d="M280.55,360.11c2.38.34,4.14,1.56,4.14,4.14,0,5.91-7.19,4.62-13,4.75V352.17c5.16.2,12-1.16,12,4.07A3.73,3.73,0,0,1,280.55,360.11Zm-6.58-.75c3.39-.07,7.46.61,7.46-2.85,0-3.19-4.27-2.44-7.46-2.51Zm0,7.81c3.73-.13,8.41.95,8.41-3.05,0-3.81-4.75-2.86-8.41-3v6"/></g><path class="cls-6" d="M259.63,241.35V309"/><path class="cls-7" d="M260.63,240.82v.56h-2v-1.5Z"/><path class="cls-8" d="M259.63,324.25,255,310h9.27Z"/><g id="g"><path id="s" class="cls-2" d="M247,271c2.89,0,3.89,2.39,3.89,5.44s-1.05,5.5-4.05,5.56a3.4,3.4,0,0,1-3.23-1.95l-.11,1.73h-2.66l.05-14.5h2.78v5.77A3.37,3.37,0,0,1,247,271Zm-1.16,9.11c1.72,0,2.22-1.5,2.22-3.67s-.39-3.5-2.17-3.5-2.28,1.56-2.28,3.61.45,3.56,2.23,3.56"/></g><path class="cls-1" d="M319.37,41.5a40,40,0,1,1-40-40A40,40,0,0,1,319.37,41.5Z"/><path class="cls-1" d="M312.36,41.5a33,33,0,1,1-33-33,33,33,0,0,1,33,33Z"/><g id="h"><path id="t" class="cls-2" d="M285.16,47.07l-1.9-4.89h-7.67l-1.9,4.89h-2.38l6.86-16.84h2.58l6.72,16.84Zm-2.58-6.72L279.39,32c-.81,3-2.1,5.57-3.12,8.35h6.31"/></g><path class="cls-6" d="M277.83,160.63V101.41"/><path class="cls-7" d="M278.83,161.7l-1-.07-1,0V160.6h2Z"/><path class="cls-8" d="M277.83,86.14l4.64,14.27H273.2Z"/><g id="i"><path id="u" class="cls-2" d="M269,132.53a4.44,4.44,0,0,1-4.55,2.89c-3.34-.11-4.95-2.06-4.95-5.56s1.67-5.44,5-5.44,4.61,2.5,4.67,6h-6.78c0,1.72.45,3.06,2.17,3.11a1.72,1.72,0,0,0,1.89-1.22Zm-2.5-3.83c.28-2.56-3.16-3.5-3.89-1.17a3.64,3.64,0,0,0-.22,1.17h4.11"/></g><path class="cls-6" d="M459.37,158.6V47.5a6,6,0,0,0-6-6h-114"/><path class="cls-7" d="M460.37,159.64l-1-.06-1,0v-1.06h2Z"/><path class="cls-8" d="M324.11,41.5l14.27-4.64v9.28Z"/><g id="i-2" data-name="i"><path id="u-2" data-name="u" class="cls-2" d="M450.54,109.9a4.46,4.46,0,0,1-4.55,2.89c-3.34-.11-4.95-2.06-4.95-5.56s1.67-5.44,5-5.44,4.61,2.5,4.67,6h-6.78c0,1.72.44,3,2.17,3.11a1.72,1.72,0,0,0,1.89-1.22Zm-2.5-3.83c.28-2.56-3.17-3.5-3.89-1.17a3.64,3.64,0,0,0-.22,1.17H448"/></g><path class="cls-6" d="M235.33,364.76H85.45a6,6,0,0,1-6-6V263.13"/><path class="cls-7" d="M236.33,364.74l0,1h-1.06v-2h1.08Z"/><path class="cls-8" d="M79.45,247.87l4.64,14.26H74.82Z"/><g id="j"><path id="v" class="cls-2" d="M182,377.09c.05-1.61-3.89-1.88-3.95-.22.83,2.56,6.56.39,6.61,4.78.06,4.61-9.11,4.22-9.55.5l2.39-.39c.22,1.06,1.11,1.39,2.44,1.39,1.83.44,3.17-1.67,1.33-2.28-2.39-.78-5.66-.61-5.77-3.66-.12-4.45,8.55-4.12,8.94-.39"/></g><path class="cls-6" d="M239.67,221.55H135.07"/><path class="cls-7" d="M240.37,221l.86,1.55h-1.58v-2h.54Z"/><path class="cls-8" d="M119.81,221.55l14.27-4.64v9.28Z"/><g id="d-2" data-name="d"><path id="p-2" data-name="p" class="cls-2" d="M188,230.77c2.95,0,3.89,2.44,3.89,5.44s-1.06,5.45-4.06,5.56c-1.72.06-2.5-.94-3.27-1.89.16,1.83.11,3.83.11,5.83h-2.78L181.82,231h2.67a13.9,13.9,0,0,0,.17,1.72A3.21,3.21,0,0,1,188,230.77Zm-1.17,9.11c1.84,0,2.17-1.72,2.23-3.67,0-2.11-.5-3.55-2.23-3.55-3.11,0-3,7.22,0,7.22"/></g><path class="cls-6" d="M420.79,218.66h-86"/><path class="cls-7" d="M421.91,219l.4.7h-1.55v-2h.63Z"/><path class="cls-8" d="M319.55,218.66,333.81,214v9.27Z"/><g id="d-3" data-name="d"><path id="p-3" data-name="p" class="cls-2" d="M370.47,227.89c2.94,0,3.88,2.44,3.88,5.44s-1.05,5.45-4.05,5.56c-1.72.05-2.5-.95-3.28-1.89.17,1.83.11,3.83.11,5.83h-2.78l-.05-14.72H367a16.3,16.3,0,0,0,.16,1.72A3.22,3.22,0,0,1,370.47,227.89ZM369.3,237c1.83,0,2.17-1.72,2.22-3.67,0-2.11-.5-3.55-2.22-3.55-3.11,0-3.06,7.22,0,7.22"/></g><path class="cls-6" d="M301.75,329.87v-74.4"/><path class="cls-7" d="M302.75,331.62l-.65-.54-1.35-.84v-.4h2Z"/><path class="cls-8" d="M301.75,240.2l4.64,14.26h-9.27Z"/><g id="d-4" data-name="d"><path id="p-4" data-name="p" class="cls-2" d="M317.25,277.14c2.95,0,3.89,2.44,3.89,5.44s-1.06,5.45-4.06,5.56c-1.72.05-2.5-.95-3.27-1.89.16,1.83.11,3.83.11,5.83h-2.78l-.06-14.72h2.67a14.1,14.1,0,0,0,.17,1.72A3.21,3.21,0,0,1,317.25,277.14Zm-1.17,9.11c1.84,0,2.17-1.72,2.23-3.67,0-2.11-.5-3.55-2.23-3.55-3.11,0-3.05,7.22,0,7.22"/></g></g></g></svg>