<svg xmlns="http://www.w3.org/2000/svg" viewBox="0 0 501.32 406.26"><defs><style>.cls-1,.cls-5,.cls-7,.cls-8{fill:#fff;}.cls-1{stroke:#a87e62;}.cls-1,.cls-4{stroke-width:3px;}.cls-2{fill:#a87e62;}.cls-3,.cls-6{fill:none;}.cls-3,.cls-4,.cls-6,.cls-7,.cls-8{stroke:#fff;}.cls-3{stroke-width:1.5px;}.cls-4{fill-opacity:0;}.cls-6,.cls-8{stroke-width:2px;}.cls-7{stroke-width:0.05px;}</style></defs><g id="Layer_2" data-name="Layer 2"><g id="Layer_1-2" data-name="Layer 1"><path class="cls-1" d="M119.9,203.13a40,40,0,1,1-40-40A40,40,0,0,1,119.9,203.13Z"/><g id="k"><path id="w" class="cls-2" d="M83.53,195.67c-.08-3.19-7-3.41-7.19-.22,1.34,4.89,11.19.74,11.41,8.44.22,7-12.22,6.89-15.11,2.67a5.41,5.41,0,0,1-.89-2.22l3.7-.6c.23,3.41,8.3,4.15,8.6.37-1.26-5.11-11.11-.74-11.41-8.44-.3-6.45,11.33-6.52,13.93-2.59a6.3,6.3,0,0,1,.74,2.07"/></g><path class="cls-3" d="M1.42,162.68a.74.74,0,0,1,1.05,0l38.2,38.2a.75.75,0,0,1-1.06,1.06l-38.2-38.2a.75.75,0,0,1,0-1.06Zm.4,81.3a.75.75,0,0,1,0-1.06l37.8-37.8a.74.74,0,0,1,1.05,0,.75.75,0,0,1,0,1.06L2.87,244a.75.75,0,0,1-1.06,0Z"/><path class="cls-4" d="M499.82,201.08a40,40,0,1,1-40-40A40,40,0,0,1,499.82,201.08Z"/><g id="b"><path id="n" class="cls-5" d="M456.66,190.39v6.25H466v1.9h-9.38v6.79h-2.24V188.49h11.89v1.9h-9.65"/></g><path class="cls-4" d="M318.28,203.13a40,40,0,1,1-40-40A40,40,0,0,1,318.28,203.13Z"/><g id="c"><path id="o" class="cls-5" d="M272.17,190.53c5.91.07,13-1,13,5.1,0,5.29-5.23,5.43-10.73,5.16v6.58h-2.24Zm2.24,8.49c3.87,0,8.42.75,8.42-3.39s-4.61-3.2-8.42-3.26V199"/></g><path class="cls-6" d="M117.82,184.26H222.87"/><path class="cls-7" d="M117.82,185.26h-.45l-1.12-2h1.58Z"/><path class="cls-8" d="M238.12,184.26l-14.25,4.63v-9.27Z"/><g id="d"><path id="p" class="cls-5" d="M172.12,161.48c2.94,0,3.89,2.44,3.89,5.44s-1.06,5.45-4.06,5.56c-1.72.06-2.5-.94-3.27-1.89.16,1.83.11,3.83.11,5.83H166L166,161.7h2.67a13.9,13.9,0,0,0,.17,1.72A3.21,3.21,0,0,1,172.12,161.48ZM171,170.59c1.84,0,2.17-1.72,2.23-3.67,0-2.11-.5-3.55-2.23-3.55-3.11,0-3,7.22,0,7.22"/></g><path class="cls-6" d="M314.92,182h89.6"/><path class="cls-7" d="M315,183h-.47l-1.1-2H315Z"/><path class="cls-8" d="M419.78,182l-14.27,4.63v-9.27Z"/><g id="e"><path id="q" class="cls-5" d="M371.89,157.43c-1.5-.39-2.39.28-2.11,2h2.11v1.83h-2.11V170h-2.72v-8.73H365.5v-1.83h1.56c-.5-3.28,1.77-4.5,4.83-3.78v1.78"/></g><path class="cls-4" d="M318.28,364.76a40,40,0,1,1-40-40A40,40,0,0,1,318.28,364.76Z"/><g id="f"><path id="r" class="cls-5" d="M281,360.11c2.38.34,4.14,1.56,4.14,4.14,0,5.91-7.2,4.62-13,4.75V352.16c5.16.21,12-1.15,12,4.08A3.73,3.73,0,0,1,281,360.11Zm-6.59-.75c3.4-.07,7.47.61,7.47-2.85,0-3.19-4.28-2.45-7.47-2.51Zm0,7.81c3.74-.14,8.42.95,8.42-3.06,0-3.8-4.75-2.85-8.42-3v6"/></g><path class="cls-6" d="M260.06,241.36V309"/><path class="cls-7" d="M261.06,240.82v.55h-2v-1.48Z"/><path class="cls-8" d="M260.06,324.26,255.43,310h9.28Z"/><g id="g"><path id="s" class="cls-5" d="M247.4,271c2.89,0,3.89,2.39,3.89,5.44s-1.06,5.5-4.06,5.56a3.41,3.41,0,0,1-3.22-1.95l-.11,1.73h-2.67l.06-14.5h2.78v5.77A3.37,3.37,0,0,1,247.4,271Zm-1.17,9.11c1.73,0,2.23-1.5,2.23-3.67s-.39-3.5-2.17-3.5S244,274.5,244,276.55s.45,3.56,2.22,3.56"/></g><path class="cls-4" d="M319.82,41.5a40,40,0,1,1-40-40A40,40,0,0,1,319.82,41.5Z"/><path class="cls-4" d="M312.8,41.5a33,33,0,1,1-33-33A33,33,0,0,1,312.8,41.5Z"/><g id="h"><path id="t" class="cls-5" d="M285.61,47.07l-1.9-4.89H276l-1.9,4.89h-2.38l6.86-16.84h2.58l6.72,16.84ZM283,40.35,279.84,32c-.82,3-2.11,5.56-3.12,8.35H283"/></g><path class="cls-6" d="M278.28,160.63V101.41"/><path class="cls-7" d="M279.28,161.69l-1-.06-1,0V160.6h2Z"/><path class="cls-8" d="M278.28,86.14l4.64,14.27h-9.27Z"/><g id="i"><path id="u" class="cls-5" d="M269.45,132.53a4.47,4.47,0,0,1-4.56,2.89c-3.33-.11-4.94-2.06-4.94-5.56s1.67-5.44,5-5.44,4.61,2.5,4.67,6h-6.78c0,1.72.44,3.05,2.17,3.11a1.7,1.7,0,0,0,1.88-1.22ZM267,128.7c.28-2.56-3.17-3.5-3.89-1.17a3.64,3.64,0,0,0-.22,1.17H267"/></g><path class="cls-6" d="M459.82,158.58V47.5a6,6,0,0,0-6-6h-114"/><path class="cls-7" d="M460.82,159.64l-1-.06-1,0v-1.06h2Z"/><path class="cls-8" d="M324.56,41.5l14.26-4.64v9.27Z"/><g id="i-2" data-name="i"><path id="u-2" data-name="u" class="cls-5" d="M451,109.9a4.48,4.48,0,0,1-4.56,2.89c-3.33-.11-4.94-2.06-4.94-5.56s1.67-5.44,5-5.44,4.61,2.5,4.67,6h-6.78c0,1.72.44,3,2.16,3.11a1.71,1.71,0,0,0,1.89-1.22Zm-2.5-3.84c.28-2.55-3.17-3.5-3.89-1.16a3.63,3.63,0,0,0-.22,1.16h4.11"/></g><path class="cls-6" d="M235.78,364.76H85.9a6,6,0,0,1-6-6V263.13"/><path class="cls-7" d="M236.78,364.74l0,1h-1.07v-2h1.1Z"/><path class="cls-8" d="M79.9,247.86l4.63,14.27H75.27Z"/><g id="j"><path id="v" class="cls-5" d="M182.39,377.09c.06-1.61-3.89-1.89-3.94-.22.83,2.56,6.55.39,6.61,4.78.06,4.61-9.11,4.22-9.56.5l2.39-.39c.23,1.06,1.11,1.39,2.45,1.39,1.83.44,3.16-1.67,1.33-2.28-2.39-.78-5.67-.61-5.78-3.67-.11-4.44,8.56-4.11,9-.38"/></g><path class="cls-6" d="M240.12,221.56H135.52"/><path class="cls-7" d="M240.82,221l.85,1.55h-1.58v-2h.53Z"/><path class="cls-8" d="M120.26,221.56l14.26-4.65v9.27Z"/><g id="d-2" data-name="d"><path id="p-2" data-name="p" class="cls-5" d="M188.44,230.77c2.94,0,3.89,2.44,3.89,5.44s-1.06,5.45-4.06,5.56c-1.72,0-2.5-1-3.28-1.89.17,1.83.12,3.83.12,5.83h-2.78L182.27,231h2.67a13.9,13.9,0,0,0,.17,1.72A3.21,3.21,0,0,1,188.44,230.77Zm-1.17,9.11c1.84,0,2.17-1.72,2.22-3.67,0-2.11-.5-3.55-2.22-3.55-3.11,0-3.05,7.22,0,7.22"/></g><path class="cls-6" d="M421.22,218.66h-86"/><path class="cls-7" d="M422.35,219l.4.7h-1.54v-2h.6Z"/><path class="cls-8" d="M320,218.66,334.26,214v9.27Z"/><g id="d-3" data-name="d"><path id="p-3" data-name="p" class="cls-5" d="M370.91,227.89c2.95,0,3.89,2.44,3.89,5.44s-1.05,5.44-4.05,5.56c-1.73.05-2.5-.95-3.28-1.89.17,1.83.11,3.83.11,5.83H364.8l-.05-14.72h2.66a14.1,14.1,0,0,0,.17,1.72A3.21,3.21,0,0,1,370.91,227.89ZM369.75,237c1.83,0,2.16-1.73,2.22-3.67,0-2.11-.5-3.56-2.22-3.56-3.11,0-3.06,7.23,0,7.23"/></g><path class="cls-6" d="M302.2,329.86v-74.4"/><path class="cls-7" d="M303.2,331.62l-.66-.54-1.34-.85v-.4h2Z"/><path class="cls-8" d="M302.2,240.2l4.62,14.26h-9.26Z"/><g id="d-4" data-name="d"><path id="p-4" data-name="p" class="cls-5" d="M317.7,277.14c2.94,0,3.89,2.44,3.89,5.44s-1.06,5.44-4.06,5.56c-1.72.05-2.5-.95-3.28-1.89.17,1.83.12,3.83.12,5.83h-2.78l-.06-14.72h2.67a14.1,14.1,0,0,0,.17,1.72A3.21,3.21,0,0,1,317.7,277.14Zm-1.17,9.11c1.84,0,2.17-1.73,2.22-3.67,0-2.11-.5-3.56-2.22-3.56-3.11,0-3,7.23,0,7.23"/></g></g></g></svg>