<svg fill="#fff" id="Layer_1" data-name="Layer 1" xmlns="http://www.w3.org/2000/svg" viewBox="0 0 435 435">
	<path d="M673.5,174C553.38,174,456,271.38,456,391.5S553.38,609,673.5,609,891,511.62,891,391.5,793.62,174,673.5,174ZM865.7,340.49l-30.45,10.88-10.88-30.45L854.82,310Zm-51.22-88.25,22.86,22.86L814.48,298,791.61,275.1Zm-53.77-40.12L788,229.47l-17.35,27.28-27.29-17.34Zm-68.53-17.84L724.3,198l-3.7,32.12-32.12-3.7Zm-35-.28,3.7,32.12-32.13,3.7L625,197.7Zm-68.89,16.82,17.35,27.29L578.3,255.46,561,228.17Zm-54.1,39.71L557,273.4l-22.86,22.86L511.27,273.4ZM492.9,307.76l30.45,10.89L512.47,349.1,482,338.21Zm-16.72,65.07,32.13,3.7-3.7,32.13L472.48,405Zm5.3,70.53,30.45-10.88,10.88,30.45-30.45,10.88ZM533,531.42l-22.87-22.86L533,485.69l22.86,22.87Zm53.88,40-27.29-17.35,17.35-27.29,27.29,17.35Zm68.65,17.5-32.13-3.7,3.7-32.13,32.13,3.7ZM526.5,391.5a147,147,0,1,1,147,147A147,147,0,0,1,526.5,391.5ZM690.58,589l-3.7-32.12,32.12-3.7,3.7,32.12Zm68.77-17.16L742,544.55l27.29-17.35,17.35,27.29Zm54-39.85-22.86-22.86,22.86-22.87,22.87,22.87Zm40.93-57.42-30.45-10.88,10.89-30.45,30.45,10.88Zm-15.58-68.81,3.7-32.13,32.13,3.7-3.7,32.13Z" transform="translate(-456 -174)" />
	<path d="M673.5,260.5a131,131,0,1,0,131,131A131,131,0,0,0,673.5,260.5Zm82,213a116.35,116.35,0,0,1-13.9,11.89l-8-15.75-27.88,14.13,8.33,16.43A116.68,116.68,0,0,1,623,496l10.1-15.15-26-17.33L597,478.68c-1.88-1.66-3.72-3.37-5.5-5.16a115.14,115.14,0,0,1-33.87-77l18.88,1.21,2-31.19-18-1.15a115.14,115.14,0,0,1,31-55.9,116.54,116.54,0,0,1,22.66-17.7L623,309.27l27.87-14.13L643,279.54a116.75,116.75,0,0,1,30.53-4A115.25,115.25,0,0,1,733.22,292l-11,16.55,26,17.33,9.48-14.21A115.07,115.07,0,0,1,788.47,376l-16.57-1.06-2,31.19,18.52,1.18A115.07,115.07,0,0,1,755.52,473.52Z" transform="translate(-456 -174)" />
</svg>
